<svg xmlns="http://www.w3.org/2000/svg" viewBox="0 0 190.86 258.28"><defs><style>.cls-1,.cls-3{fill:#9aa5af;}.cls-2{fill:#7e8e99;}.cls-3{font-size:72px;font-family:BebasNeueBold, Bebas Neue;}.cls-4{fill:#776b5e;}.cls-5{fill:#5b5246;}.cls-6{fill:#c2b091;}.cls-7{fill:#d7c49f;}.cls-8{fill:#af9d7e;}.cls-9{fill:#fff;}.cls-10{fill:#c6b394;}</style></defs><title>404</title><g id="Layer_6" data-name="Layer 6"><path class="cls-1" d="M115.65,181.91c-1.55-18.06,54.71-82.06,74.06-20.39S163.22,216,154.66,222.17s-2.06,31-2.21,30.71-7.12,4.39-7.12,4.39l-6.13-4.65s3.83.77,3.17-9,3.58-27.87,12.29-33.29c15.31-9.53,27.57-3.87,25.51-20.13s-3.1-44.87-25.51-35.1c-28.84,12.58-25.37,37.42-31,36.13S115.65,181.91,115.65,181.91Z" transform="translate(-54.91 -20.86)"/><circle class="cls-1" cx="92.46" cy="250.71" r="7.57"/><polyline class="cls-2" points="89.15 125.56 94.92 133.7 96.15 133.7 101.76 123.57 101.15 123.05 95.54 132.53 89.15 125.56"/><text class="cls-3" transform="translate(105.33 107.2)">404</text></g><g id="Layer_3" data-name="Layer 3"><path class="cls-4" d="M157.11,91.07l-19,11.88L65,72.49s-2.36-4.38-4.78-9.07a0,0,0,0,0,0,0c-2.6-5-5.28-10.34-5.28-11.14,0-1.55,2.91-7.75,3.09-9.87s-1.73-10.26-2.12-11.81,10.26,2.52,10.26,2.52,4.06-11.42,4.26-12.2,27.87,8.52,32.8,6.78,22.36-6.78,22.36-6.78S147.62,28.85,152,36.59,157.11,91.07,157.11,91.07Z" transform="translate(-54.91 -20.86)"/><path class="cls-5" d="M116.53,53.31s1.94,7.61,2.19,10.47c-2.6-5-5.28-10.34-5.28-11.14,0-1.55,2.91-7.75,3.09-9.87S114.8,32.51,114.41,31l7.06,11.32Z" transform="translate(-54.91 -20.86)"/><path class="cls-5" d="M71.65,31.75l-2.15,4-3.36-2.61s4.06-11.42,4.26-12.2Z" transform="translate(-54.91 -20.86)"/></g><g id="Layer_5" data-name="Layer 5"><path class="cls-6" d="M139.69,98c8.43,12.58,16.37,45.87,16.37,45.87l-5.61,9.48-6.39-7,3.25-2.71s-2.67-33.92-10.8-40.76Z" transform="translate(-54.91 -20.86)"/></g><g id="Layer_2" data-name="Layer 2"><path class="cls-7" d="M148.4,87.88c.19.58-28.07,39.68-28.07,41S94.78,133.36,90.72,133c-.93-.09-3.11-1.85-5.93-4.92-9.45-10.27-26-35.12-26.78-60.31-.29-9.64,4.69-16.55,12-21.47,17.45-11.77,48.18-12.23,51.87-11.82,5.23.58,21.87,23.23,22.45,27.48C144.33,61.94,148.2,87.3,148.4,87.88Z" transform="translate(-54.91 -20.86)"/><path class="cls-7" d="M139.69,75.88c.77-2.71,11.41-12.39,13.93-12.78s10.65,17.81,10.65,17.81L150.91,91.75l-2.51,2.71-5.62-6.78Z" transform="translate(-54.91 -20.86)"/><path class="cls-8" d="M152,69.3a72.18,72.18,0,0,0-6.1,15.48l5.22-3.29-.58,7.35s-.48-5.28-.58-5.15-7.29,3.47-7.29,3.47S149.27,71.23,152,69.3Z" transform="translate(-54.91 -20.86)"/></g><g id="Layer_4" data-name="Layer 4"><path class="cls-8" d="M92,70.27c-5,9.66-11.63,21-11.75,22.06a.46.46,0,0,0,0,.23c.31,2,6.36,7.13,6.36,7.13s-8.9-5-8.9-6.58a1.23,1.23,0,0,1,.12-.43c.92-2.22,7-10.68,13.69-23.25,2-3.65,4-7.65,5.93-11.94C97.21,59.75,94.88,64.74,92,70.27Z" transform="translate(-54.91 -20.86)"/><path class="cls-8" d="M86.36,95c1.31-1.48,3.73.11,4,.6s1.47-5.78,1.47-5.78l-1.63,3.47S86.88,92.91,86.36,95Z" transform="translate(-54.91 -20.86)"/><path class="cls-8" d="M83.82,118.91c4.77-13.85,29.59-25.7,37.12-4C120.94,114.87,103.9,91.37,83.82,118.91Z" transform="translate(-54.91 -20.86)"/><circle class="cls-9" cx="60.84" cy="58.21" r="15.39"/><path class="cls-9" d="M91.56,69.43C84.83,82,78.79,90.46,77.87,92.68A15.39,15.39,0,1,1,91.56,69.43Z" transform="translate(-54.91 -20.86)"/><circle class="cls-1" cx="20.84" cy="55.6" r="4.35"/><circle class="cls-1" cx="60.71" cy="57.73" r="4.52"/><path class="cls-10" d="M84.79,128.06c-9.45-10.27-26-35.12-26.78-60.31-.29-9.64,4.69-16.55,12-21.47-5.38,4.48-9.29,18.57-9.29,18.57S54.88,87.45,84.79,128.06Z" transform="translate(-54.91 -20.86)"/></g></svg>